<?xml version="1.0" encoding="UTF-8" ?>
<!DOCTYPE svg PUBLIC "-//W3C//DTD SVG 1.1//EN" "http://www.w3.org/Graphics/SVG/1.1/DTD/svg11.dtd">
<svg width="268pt" height="268pt" viewBox="0 0 268 268" version="1.1" xmlns="http://www.w3.org/2000/svg">
<g id="#ffffffff">
</g>
<g id="#dba640ff">
<path fill="#dba640" opacity="1.00" d=" M 49.85 36.96 C 82.44 30.39 115.62 23.71 149.04 26.43 C 171.54 28.03 193.69 32.54 215.81 36.73 C 215.83 36.93 215.87 37.32 215.89 37.52 C 216.41 42.57 216.55 47.68 215.87 52.73 C 215.11 56.47 214.66 60.26 214.47 64.07 C 214.17 61.66 213.83 59.26 213.44 56.86 C 212.92 58.42 212.44 59.98 211.99 61.56 C 208.86 61.93 209.71 57.39 208.38 55.52 C 208.24 52.32 208.33 49.11 208.09 45.91 C 202.53 44.84 196.99 43.62 191.40 42.72 C 187.95 42.06 184.51 41.43 181.03 40.95 C 181.35 40.79 181.98 40.47 182.29 40.31 C 162.51 36.17 142.20 34.37 122.00 35.38 C 106.72 35.54 91.69 38.72 76.76 41.67 C 77.54 41.73 79.12 41.86 79.90 41.93 C 78.69 42.12 77.47 42.30 76.25 42.48 C 72.25 43.09 68.31 44.05 64.31 44.68 C 62.05 44.99 59.80 45.32 57.55 45.71 C 57.19 76.95 57.56 108.21 57.38 139.45 C 56.71 138.43 56.04 137.41 55.39 136.38 C 54.94 139.07 53.51 141.40 52.45 143.87 C 52.05 141.44 50.97 139.23 49.48 137.29 C 49.42 136.96 49.31 136.31 49.25 135.98 C 49.27 104.65 49.31 73.32 49.24 41.99 C 49.39 40.32 48.91 38.45 49.85 36.96 Z" />
</g>
<g id="#9c9991ff">
<path fill="#9c9991" opacity="1.00" d=" M 76.76 41.67 C 91.69 38.72 106.72 35.54 122.00 35.38 C 142.20 34.37 162.51 36.17 182.29 40.31 C 181.98 40.47 181.35 40.79 181.03 40.95 C 174.25 39.91 167.51 38.62 160.68 37.96 C 147.11 36.04 133.35 36.00 119.68 36.62 C 106.32 37.49 93.05 39.37 79.90 41.93 C 79.12 41.86 77.54 41.73 76.76 41.67 Z" />
</g>
<g id="#0744f7ff">
<path fill="#0744f7" opacity="1.00" d=" M 119.68 36.62 C 133.35 36.00 147.11 36.04 160.68 37.96 C 159.79 39.58 158.75 41.11 157.60 42.56 C 157.87 43.32 158.15 44.09 158.44 44.85 C 158.64 44.15 159.04 42.73 159.24 42.03 L 159.55 42.43 C 160.15 43.95 160.75 45.46 161.35 46.97 C 161.84 46.38 162.82 45.21 163.31 44.62 C 163.66 45.08 164.35 45.99 164.69 46.45 C 164.43 46.28 163.91 45.94 163.65 45.77 C 162.96 48.03 163.50 51.66 160.41 52.22 C 160.46 51.31 160.56 49.50 160.61 48.60 C 159.70 50.01 158.77 51.44 158.38 53.10 C 157.89 53.05 156.91 52.94 156.42 52.89 C 156.29 51.59 156.16 50.29 156.03 48.99 C 155.50 49.87 154.96 50.75 154.43 51.63 C 153.69 50.55 152.95 49.48 152.21 48.40 C 152.70 47.47 153.20 46.54 153.71 45.62 C 151.35 45.07 149.03 45.75 146.77 46.40 C 148.32 45.35 149.99 44.54 151.72 43.86 C 151.40 43.42 150.76 42.53 150.44 42.09 C 149.23 42.60 148.03 43.13 146.83 43.66 C 146.61 44.41 146.16 45.91 145.93 46.67 C 144.79 44.57 144.20 42.25 143.99 39.89 C 140.16 36.35 134.80 37.38 130.07 37.40 C 126.58 37.53 123.12 37.08 119.68 36.62 Z" />
</g>
<g id="#0563f8ff">
<path fill="#0563f8" opacity="1.00" d=" M 79.90 41.93 C 93.05 39.37 106.32 37.49 119.68 36.62 C 123.12 37.08 126.58 37.53 130.07 37.40 C 134.80 37.38 140.16 36.35 143.99 39.89 C 144.20 42.25 144.79 44.57 145.93 46.67 C 145.07 49.30 143.43 51.57 142.10 53.98 C 144.19 53.21 145.38 51.30 146.52 49.52 C 146.55 50.48 146.62 52.42 146.65 53.38 C 148.52 52.95 150.39 52.55 152.28 52.20 C 152.27 51.25 152.23 49.35 152.21 48.40 C 152.95 49.48 153.69 50.55 154.43 51.63 C 154.96 50.75 155.50 49.87 156.03 48.99 C 156.16 50.29 156.29 51.59 156.42 52.89 C 156.91 52.94 157.89 53.05 158.38 53.10 L 159.66 53.23 C 158.70 54.83 157.97 56.55 157.41 58.33 C 153.46 58.15 149.64 57.06 145.71 56.69 C 145.48 57.35 145.02 58.67 144.79 59.34 C 145.38 59.54 146.57 59.93 147.16 60.13 C 145.81 60.30 144.92 59.86 144.49 58.78 C 144.45 58.66 144.37 58.42 144.33 58.30 C 143.99 57.36 143.25 56.93 142.12 57.00 L 141.71 57.12 C 141.31 56.04 141.41 54.64 140.57 53.78 C 139.13 53.30 137.58 53.33 136.07 53.26 C 136.99 52.14 137.88 51.00 138.77 49.86 C 137.98 49.39 137.19 48.92 136.40 48.46 C 137.38 48.24 139.33 47.81 140.31 47.59 C 139.68 46.89 139.05 46.19 138.42 45.50 C 138.23 44.23 138.05 42.96 137.87 41.69 C 135.74 41.58 133.63 41.92 131.63 42.65 C 131.64 43.72 131.65 45.86 131.66 46.94 C 131.06 47.97 130.49 49.01 129.94 50.06 C 128.91 50.56 127.92 51.11 126.95 51.70 C 125.68 50.82 124.41 49.94 123.15 49.06 C 123.59 48.55 124.47 47.53 124.91 47.03 C 124.21 45.60 123.52 44.17 122.83 42.74 C 122.45 44.17 122.04 45.59 121.62 47.02 L 121.28 47.20 C 118.29 46.29 115.15 46.23 112.10 46.89 C 112.28 45.94 112.64 44.02 112.81 43.07 C 112.18 43.79 110.92 45.24 110.29 45.96 C 110.66 47.35 111.42 48.59 112.06 49.87 C 111.35 49.87 109.93 49.88 109.22 49.88 C 109.29 47.70 109.32 45.51 109.28 43.33 C 108.99 43.72 108.41 44.50 108.13 44.89 C 107.84 45.24 107.28 45.94 107.00 46.29 C 106.53 45.65 106.07 45.02 105.60 44.39 C 104.65 45.33 103.71 46.27 102.77 47.22 C 102.76 45.74 102.77 44.25 102.81 42.77 C 102.16 43.98 101.97 45.95 100.10 45.44 C 99.63 45.12 98.70 44.49 98.23 44.18 C 96.68 42.71 95.70 45.26 96.87 46.32 L 97.19 47.09 C 96.12 48.13 95.09 49.21 94.04 50.28 C 95.51 51.20 95.86 52.59 95.27 54.22 C 95.01 54.34 94.48 54.59 94.22 54.71 C 93.75 53.98 93.28 53.26 92.81 52.54 C 92.46 52.54 91.77 52.54 91.42 52.54 C 91.29 52.24 91.03 51.65 90.90 51.35 L 90.88 51.34 C 90.25 51.06 88.97 50.50 88.33 50.21 C 87.99 49.52 87.66 48.82 87.35 48.11 C 86.44 48.48 85.55 48.87 84.66 49.27 C 84.43 49.85 83.96 51.00 83.73 51.58 L 83.55 51.59 L 82.16 51.28 C 82.15 51.74 82.12 52.66 82.11 53.12 C 80.99 55.99 79.66 58.78 78.79 61.74 C 78.25 61.83 77.18 62.00 76.65 62.08 L 75.93 62.24 C 73.84 62.75 71.73 63.40 69.98 64.69 L 69.55 63.97 C 68.81 62.50 68.14 60.96 67.90 59.33 C 69.49 56.92 71.20 54.50 73.68 52.92 C 73.40 53.80 72.84 55.55 72.56 56.43 C 72.87 56.63 73.49 57.04 73.79 57.24 C 73.69 57.63 73.49 58.42 73.39 58.82 C 75.00 58.73 76.60 58.67 78.21 58.57 C 77.74 58.17 76.79 57.37 76.32 56.97 C 76.33 56.53 76.34 55.64 76.34 55.20 C 76.41 53.42 76.45 51.63 76.42 49.85 C 75.01 48.56 73.96 46.98 73.23 45.23 C 74.24 44.32 75.25 43.40 76.25 42.48 C 77.47 42.30 78.69 42.12 79.90 41.93 Z" />
</g>
<g id="#052cf8ff">
<path fill="#052cf8" opacity="1.00" d=" M 160.68 37.96 C 167.51 38.62 174.25 39.91 181.03 40.95 C 184.51 41.43 187.95 42.06 191.40 42.72 C 192.88 43.74 194.50 44.57 196.29 44.91 C 196.27 45.36 196.24 46.27 196.22 46.72 C 196.31 47.24 196.48 48.26 196.57 48.78 L 194.47 48.21 C 194.42 48.20 194.33 48.17 194.28 48.16 C 192.24 47.36 190.07 47.22 187.94 47.65 C 187.27 51.16 186.26 54.65 186.36 58.26 C 187.11 56.54 187.57 54.66 188.65 53.10 C 189.15 53.21 190.16 53.43 190.66 53.54 L 189.98 55.44 C 188.33 57.04 189.21 58.01 191.13 58.45 C 190.12 59.42 189.12 60.40 188.14 61.39 C 184.33 64.17 179.68 60.65 175.42 61.39 C 175.15 61.78 174.61 62.56 174.34 62.95 C 171.94 63.61 169.41 63.66 167.02 62.92 C 166.43 62.73 165.26 62.36 164.67 62.17 C 166.77 62.17 168.87 62.19 170.97 62.23 C 171.08 61.46 171.30 59.91 171.41 59.13 C 170.17 57.30 168.60 55.75 166.86 54.42 C 166.90 54.14 166.99 53.58 167.03 53.30 C 167.39 51.90 167.27 50.55 166.67 49.25 L 166.20 48.43 C 165.71 47.76 165.21 47.10 164.69 46.45 C 164.35 45.99 163.66 45.08 163.31 44.62 C 162.82 45.21 161.84 46.38 161.35 46.97 C 160.75 45.46 160.15 43.95 159.55 42.43 L 159.24 42.03 C 159.04 42.73 158.64 44.15 158.44 44.85 C 158.15 44.09 157.87 43.32 157.60 42.56 C 158.75 41.11 159.79 39.58 160.68 37.96 M 175.93 45.55 C 175.83 46.03 175.62 46.99 175.52 47.47 C 173.73 46.64 172.35 49.72 173.53 50.95 C 173.27 51.60 172.74 52.90 172.48 53.55 L 173.75 52.83 C 174.46 53.85 175.15 54.88 175.89 55.88 C 176.65 56.41 177.50 56.75 178.43 56.89 C 178.78 56.50 179.48 55.73 179.82 55.35 C 184.16 55.30 183.57 49.08 181.68 46.52 C 181.70 46.28 181.74 45.78 181.76 45.54 C 181.04 45.48 179.61 45.38 178.89 45.32 C 177.72 44.49 176.74 44.57 175.93 45.55 M 173.03 60.41 C 171.47 63.52 176.20 60.69 173.03 60.41 Z" />
</g>
<g id="#cdbf83ff">
<path fill="#cdbf83" opacity="1.00" d=" M 215.89 37.52 C 216.72 38.84 216.81 40.40 216.77 41.92 C 216.73 59.96 217.09 78.00 217.04 96.04 C 217.00 98.86 217.35 101.76 216.35 104.46 L 216.10 103.08 C 215.75 95.97 216.05 88.85 215.86 81.74 C 215.89 81.30 215.95 80.41 215.98 79.97 C 216.06 78.65 216.16 77.33 216.27 76.01 C 216.12 73.90 215.93 71.78 215.82 69.67 C 216.57 64.04 216.38 58.37 215.87 52.73 C 216.55 47.68 216.41 42.57 215.89 37.52 Z" />
</g>
<g id="#8abcd9ff">
<path fill="#8abcd9" opacity="1.00" d=" M 131.63 42.65 C 133.63 41.92 135.74 41.58 137.87 41.69 C 138.05 42.96 138.23 44.23 138.42 45.50 C 139.05 46.19 139.68 46.89 140.31 47.59 C 139.33 47.81 137.38 48.24 136.40 48.46 C 135.75 48.10 134.46 47.38 133.81 47.02 C 135.04 46.29 136.27 45.56 137.50 44.84 C 137.08 44.34 136.25 43.35 135.83 42.86 C 134.58 44.36 133.17 45.71 131.66 46.94 C 131.65 45.86 131.64 43.72 131.63 42.65 Z" />
</g>
<g id="#c8dce9ff">
<path fill="#c8dce9" opacity="1.00" d=" M 146.83 43.66 C 148.03 43.13 149.23 42.60 150.44 42.09 C 150.76 42.53 151.40 43.42 151.72 43.86 C 149.99 44.54 148.32 45.35 146.77 46.40 C 149.03 45.75 151.35 45.07 153.71 45.62 C 153.20 46.54 152.70 47.47 152.21 48.40 C 152.23 49.35 152.27 51.25 152.28 52.20 C 150.39 52.55 148.52 52.95 146.65 53.38 C 146.62 52.42 146.55 50.48 146.52 49.52 C 145.38 51.30 144.19 53.21 142.10 53.98 C 143.43 51.57 145.07 49.30 145.93 46.67 C 146.16 45.91 146.61 44.41 146.83 43.66 M 147.08 47.99 C 147.61 48.57 147.61 48.57 147.08 47.99 M 149.19 49.44 C 149.73 50.02 149.73 50.02 149.19 49.44 Z" />
<path fill="#c8dce9" opacity="1.00" d=" M 71.09 45.49 C 71.65 45.63 72.77 45.91 73.34 46.06 C 74.15 48.90 71.27 51.04 70.36 53.50 C 70.31 53.67 70.23 54.00 70.19 54.17 L 70.59 53.90 L 70.36 53.50 L 71.89 53.44 C 71.64 51.25 73.90 48.93 76.05 49.52 C 76.16 51.41 76.20 53.31 76.34 55.20 C 76.34 55.64 76.33 56.53 76.32 56.97 C 76.79 57.37 77.74 58.17 78.21 58.57 C 76.60 58.67 75.00 58.73 73.39 58.82 C 73.49 58.42 73.69 57.63 73.79 57.24 C 73.49 57.04 72.87 56.63 72.56 56.43 C 72.84 55.55 73.40 53.80 73.68 52.92 C 71.20 54.50 69.49 56.92 67.90 59.33 C 67.58 57.10 68.59 55.05 69.13 52.95 L 69.48 51.69 C 69.42 51.19 69.32 50.20 69.26 49.70 C 70.15 49.13 71.04 48.56 71.93 47.99 C 71.72 47.36 71.30 46.11 71.09 45.49 M 74.25 55.22 C 74.70 55.83 74.70 55.83 74.25 55.22 Z" />
</g>
<g id="#0016ddff">
<path fill="#0016dd" opacity="1.00" d=" M 64.31 44.68 C 68.31 44.05 72.25 43.09 76.25 42.48 C 75.25 43.40 74.24 44.32 73.23 45.23 C 73.96 46.98 75.01 48.56 76.42 49.85 C 76.45 51.63 76.41 53.42 76.34 55.20 C 76.20 53.31 76.16 51.41 76.05 49.52 C 73.90 48.93 71.64 51.25 71.89 53.44 L 70.36 53.50 C 71.27 51.04 74.15 48.90 73.34 46.06 C 72.77 45.91 71.65 45.63 71.09 45.49 C 71.30 46.11 71.72 47.36 71.93 47.99 C 71.04 48.56 70.15 49.13 69.26 49.70 C 69.32 50.20 69.42 51.19 69.48 51.69 L 69.13 52.95 C 68.62 50.89 69.02 48.82 69.62 46.84 C 66.40 44.71 62.70 46.48 59.39 47.41 C 59.47 59.96 58.26 72.47 58.58 85.01 C 58.37 92.24 59.03 99.43 59.22 106.65 C 58.81 112.72 59.16 118.81 59.03 124.89 C 58.49 131.57 60.30 138.43 58.32 144.95 C 58.12 141.65 57.75 138.36 57.66 135.05 C 57.65 105.57 57.91 76.09 57.59 46.61 C 59.82 45.97 62.06 45.29 64.31 44.68 Z" />
<path fill="#0016dd" opacity="1.00" d=" M 181.39 49.60 C 181.46 48.83 181.60 47.29 181.68 46.52 C 183.57 49.08 184.16 55.30 179.82 55.35 C 180.31 54.82 181.27 53.77 181.75 53.24 C 181.07 53.13 179.71 52.92 179.03 52.81 C 179.38 52.51 180.09 51.89 180.44 51.58 C 181.25 50.91 182.05 50.23 182.84 49.53 L 181.39 49.60 Z" />
<path fill="#0016dd" opacity="1.00" d=" M 119.84 50.55 C 120.37 50.24 121.44 49.64 121.97 49.34 C 122.01 50.61 121.38 51.28 120.10 51.35 L 119.84 50.55 Z" />
<path fill="#0016dd" opacity="1.00" d=" M 165.02 52.39 C 163.74 51.30 164.24 48.29 166.20 48.43 L 166.67 49.25 C 166.26 50.04 165.43 51.61 165.02 52.39 Z" />
<path fill="#0016dd" opacity="1.00" d=" M 175.38 50.61 C 175.93 51.05 177.03 51.93 177.58 52.37 L 177.79 52.67 L 175.21 52.95 C 176.26 54.10 177.77 54.55 179.16 55.12 C 178.07 55.38 176.98 55.63 175.89 55.88 C 175.15 54.88 174.46 53.85 173.75 52.83 C 174.16 52.28 174.97 51.17 175.38 50.61 Z" />
<path fill="#0016dd" opacity="1.00" d=" M 152.85 103.90 C 153.56 103.59 154.96 102.96 155.67 102.65 C 161.81 104.00 167.54 107.95 170.14 113.80 C 173.39 120.31 171.97 128.68 166.89 133.86 C 166.46 134.20 165.60 134.88 165.18 135.22 C 165.57 132.32 165.92 129.41 166.17 126.49 C 166.49 128.24 166.58 130.05 167.12 131.76 C 167.36 131.81 167.83 131.91 168.07 131.95 C 170.37 127.56 171.07 122.29 169.65 117.51 C 167.26 110.30 160.53 104.49 152.85 103.90 Z" />
<path fill="#0016dd" opacity="1.00" d=" M 97.64 135.92 C 95.78 141.83 94.14 148.52 97.57 154.22 C 101.34 162.12 110.34 165.64 118.69 165.30 C 122.97 164.20 127.15 162.62 130.82 160.11 C 129.28 164.51 124.30 165.19 120.44 166.54 C 115.90 166.27 111.18 167.05 106.84 165.30 C 99.85 162.51 94.45 155.63 93.91 148.05 C 93.65 143.69 95.58 139.63 97.64 135.92 Z" />
<path fill="#0016dd" opacity="1.00" d=" M 110.65 184.63 C 112.49 181.38 116.85 183.03 119.88 182.94 C 119.82 183.29 119.68 184.00 119.62 184.36 C 122.32 186.14 121.11 189.70 120.44 192.23 C 120.76 192.38 121.42 192.67 121.74 192.81 C 122.17 190.31 120.58 186.02 124.05 185.41 L 123.85 186.10 C 122.18 190.36 122.10 195.71 125.73 199.01 C 120.45 199.87 115.12 200.93 109.75 200.31 L 110.00 199.40 C 114.04 199.94 119.30 200.05 121.93 196.34 C 121.89 196.05 121.80 195.46 121.76 195.17 C 119.53 193.79 116.77 195.15 114.36 195.24 C 117.08 192.94 121.36 190.38 120.04 186.19 C 117.58 183.40 113.92 183.42 110.65 184.63 Z" />
<path fill="#0016dd" opacity="1.00" d=" M 143.63 184.86 C 145.18 184.09 146.82 183.64 148.55 184.11 C 147.40 184.96 144.31 185.02 144.80 186.95 C 148.15 188.33 152.09 187.27 155.69 187.65 C 155.34 188.07 154.64 188.89 154.29 189.30 C 150.94 189.25 147.50 189.46 144.21 188.73 C 143.80 187.47 143.61 186.18 143.63 184.86 Z" />
<path fill="#0016dd" opacity="1.00" d=" M 124.21 186.99 C 126.12 185.06 130.93 183.22 132.30 186.23 L 131.35 186.51 C 129.42 186.33 127.48 186.52 125.61 187.03 C 126.45 187.76 127.30 188.48 128.16 189.20 C 128.52 191.13 129.07 193.21 127.96 195.02 C 125.39 193.31 125.68 189.51 124.21 186.99 Z" />
<path fill="#0016dd" opacity="1.00" d=" M 132.34 189.42 C 132.99 188.10 134.19 187.16 135.15 186.08 C 133.82 189.80 133.13 193.84 134.60 197.64 C 136.48 197.56 138.42 197.46 140.09 198.51 C 140.60 198.10 141.63 197.28 142.14 196.87 C 143.27 194.69 143.40 192.23 143.33 189.84 C 144.98 191.06 143.80 193.01 143.52 194.61 C 144.78 194.74 146.04 194.87 147.31 194.99 C 145.97 195.42 144.58 195.74 143.27 196.27 C 142.96 198.02 145.24 198.26 146.30 199.05 C 141.93 197.51 136.31 201.69 133.07 197.32 C 130.95 198.04 128.80 198.68 126.62 199.13 C 127.01 198.70 127.80 197.83 128.20 197.40 C 129.32 197.18 130.42 196.90 131.50 196.54 C 133.12 194.50 132.39 191.79 132.34 189.42 Z" />
</g>
<g id="#cdc6e9ff">
<path fill="#cdc6e9" opacity="1.00" d=" M 100.10 45.44 C 101.97 45.95 102.16 43.98 102.81 42.77 C 102.77 44.25 102.76 45.74 102.77 47.22 C 102.81 49.67 102.83 52.19 101.85 54.48 C 101.61 53.03 101.39 51.57 101.19 50.11 C 100.00 50.22 98.80 50.33 97.61 50.43 C 97.57 51.15 97.47 52.57 97.42 53.28 C 96.88 53.51 95.81 53.98 95.27 54.22 C 95.86 52.59 95.51 51.20 94.04 50.28 C 95.09 49.21 96.12 48.13 97.19 47.09 C 98.46 47.64 99.95 46.86 100.10 45.44 M 97.58 48.91 C 97.63 52.16 100.70 47.34 97.58 48.91 Z" />
</g>
<g id="#d2e2edff">
<path fill="#d2e2ed" opacity="1.00" d=" M 131.66 46.94 C 133.17 45.71 134.58 44.36 135.83 42.86 C 136.25 43.35 137.08 44.34 137.50 44.84 C 136.27 45.56 135.04 46.29 133.81 47.02 C 134.46 47.38 135.75 48.10 136.40 48.46 C 137.19 48.92 137.98 49.39 138.77 49.86 C 137.88 51.00 136.99 52.14 136.07 53.26 L 135.83 53.28 L 134.64 53.29 C 135.09 52.73 135.99 51.62 136.44 51.06 C 135.74 51.02 134.33 50.94 133.62 50.90 C 134.02 50.43 134.83 49.50 135.23 49.03 C 134.18 48.53 133.12 48.05 132.06 47.56 C 132.01 47.97 131.92 48.77 131.88 49.17 C 131.39 49.39 130.42 49.84 129.94 50.06 C 130.49 49.01 131.06 47.97 131.66 46.94 Z" />
<path fill="#d2e2ed" opacity="1.00" d=" M 178.89 45.32 C 179.61 45.38 181.04 45.48 181.76 45.54 C 181.74 45.78 181.70 46.28 181.68 46.52 C 181.60 47.29 181.46 48.83 181.39 49.60 L 182.84 49.53 C 182.05 50.23 181.25 50.91 180.44 51.58 C 180.84 50.19 178.76 48.71 177.99 50.29 C 178.60 50.61 179.83 51.26 180.44 51.58 C 180.09 51.89 179.38 52.51 179.03 52.81 C 179.71 52.92 181.07 53.13 181.75 53.24 C 181.27 53.77 180.31 54.82 179.82 55.35 C 179.48 55.73 178.78 56.50 178.43 56.89 C 177.50 56.75 176.65 56.41 175.89 55.88 C 176.98 55.63 178.07 55.38 179.16 55.12 C 177.77 54.55 176.26 54.10 175.21 52.95 L 177.79 52.67 C 177.73 52.60 177.63 52.45 177.58 52.37 C 177.03 51.93 175.93 51.05 175.38 50.61 C 174.97 51.17 174.16 52.28 173.75 52.83 L 172.48 53.55 C 172.74 52.90 173.27 51.60 173.53 50.95 C 174.49 49.98 175.45 48.91 175.52 47.47 C 175.62 46.99 175.83 46.03 175.93 45.55 C 176.78 46.36 177.75 46.70 178.82 46.56 C 178.84 46.25 178.87 45.63 178.89 45.32 M 176.11 47.14 C 174.46 50.12 179.36 47.49 176.11 47.14 Z" />
<path fill="#d2e2ed" opacity="1.00" d=" M 87.35 48.11 C 87.66 48.82 87.99 49.52 88.33 50.21 C 88.97 50.50 90.25 51.06 90.88 51.34 C 88.85 53.66 84.43 56.49 82.11 53.12 C 82.12 52.66 82.15 51.74 82.16 51.28 L 83.55 51.59 C 83.59 51.60 83.67 51.62 83.71 51.63 L 83.73 51.58 C 83.96 51.00 84.43 49.85 84.66 49.27 C 85.55 48.87 86.44 48.48 87.35 48.11 Z" />
<path fill="#d2e2ed" opacity="1.00" d=" M 188.65 53.10 C 189.14 52.85 190.11 52.35 190.60 52.10 C 191.66 54.79 193.11 52.75 194.43 51.59 C 194.56 53.07 194.19 54.49 193.75 55.88 C 192.61 56.18 191.49 56.55 190.33 56.75 C 190.25 56.42 190.07 55.77 189.98 55.44 L 190.66 53.54 C 190.16 53.43 189.15 53.21 188.65 53.10 Z" />
</g>
<g id="#1d2cb9ff">
<path fill="#1d2cb9" opacity="1.00" d=" M 191.40 42.72 C 196.99 43.62 202.53 44.84 208.09 45.91 C 207.66 65.27 208.31 84.62 208.12 103.97 C 208.10 117.34 208.12 130.72 208.04 144.09 C 207.74 145.75 207.47 147.42 207.22 149.10 L 206.64 148.31 C 206.70 140.89 207.49 133.48 207.20 126.05 C 206.95 99.75 207.58 73.43 206.82 47.15 C 203.36 46.16 199.83 45.46 196.29 44.91 C 194.50 44.57 192.88 43.74 191.40 42.72 Z" />
</g>
<g id="#62a5d9ff">
<path fill="#62a5d9" opacity="1.00" d=" M 57.55 45.71 C 59.80 45.32 62.05 44.99 64.31 44.68 C 62.06 45.29 59.82 45.97 57.59 46.61 C 57.91 76.09 57.65 105.57 57.66 135.05 C 57.75 138.36 58.12 141.65 58.32 144.95 C 57.81 143.16 57.41 141.32 57.38 139.45 C 57.56 108.21 57.19 76.95 57.55 45.71 Z" />
<path fill="#62a5d9" opacity="1.00" d=" M 145.71 56.69 C 149.64 57.06 153.46 58.15 157.41 58.33 C 158.73 58.35 159.61 58.89 160.06 59.97 C 159.26 61.00 158.07 61.29 156.48 60.82 C 154.99 60.60 153.49 60.41 151.99 60.30 C 150.38 60.24 148.76 60.26 147.16 60.13 C 146.57 59.93 145.38 59.54 144.79 59.34 C 145.02 58.67 145.48 57.35 145.71 56.69 Z" />
<path fill="#62a5d9" opacity="1.00" d=" M 189.36 64.60 C 190.09 64.37 191.55 63.93 192.28 63.71 C 192.78 63.72 193.77 63.74 194.27 63.75 C 193.90 64.90 193.53 66.06 193.16 67.22 L 192.72 67.26 C 191.59 66.38 190.47 65.49 189.36 64.60 Z" />
</g>
<g id="#74c9e1ff">
<path fill="#74c9e1" opacity="1.00" d=" M 96.87 46.32 C 95.70 45.26 96.68 42.71 98.23 44.18 C 97.89 44.71 97.21 45.78 96.87 46.32 Z" />
</g>
<g id="#337ec9ff">
<path fill="#337ec9" opacity="1.00" d=" M 98.23 44.18 C 98.70 44.49 99.63 45.12 100.10 45.44 C 99.95 46.86 98.46 47.64 97.19 47.09 L 96.87 46.32 C 97.21 45.78 97.89 44.71 98.23 44.18 Z" />
</g>
<g id="#0685f6ff">
<path fill="#0685f6" opacity="1.00" d=" M 105.60 44.39 C 106.07 45.02 106.53 45.65 107.00 46.29 L 107.48 46.96 C 107.12 47.18 106.40 47.63 106.04 47.86 C 106.58 48.13 107.66 48.68 108.20 48.95 C 107.57 49.81 106.95 50.67 106.32 51.52 C 107.14 52.29 107.95 53.06 108.77 53.84 C 108.62 52.64 108.48 51.44 108.34 50.24 C 109.11 50.36 110.65 50.60 111.42 50.72 C 111.08 51.30 110.39 52.48 110.04 53.07 C 110.78 52.85 112.26 52.43 113.00 52.21 C 113.65 52.75 114.95 53.82 115.61 54.36 C 114.41 51.88 113.10 49.46 112.10 46.89 C 115.15 46.23 118.29 46.29 121.28 47.20 C 120.28 47.68 119.27 48.12 118.26 48.56 C 118.65 49.05 119.44 50.05 119.84 50.55 L 120.10 51.35 C 119.87 51.63 119.41 52.18 119.18 52.46 C 119.76 52.46 120.93 52.47 121.51 52.47 C 122.34 51.70 123.17 50.93 124.00 50.16 C 124.58 51.21 125.17 52.25 125.75 53.30 C 126.05 52.90 126.65 52.10 126.95 51.70 C 127.92 51.11 128.91 50.56 129.94 50.06 C 130.42 49.84 131.39 49.39 131.88 49.17 C 132.66 50.62 133.51 52.04 134.37 53.45 C 134.74 53.40 135.47 53.32 135.83 53.28 L 136.07 53.26 C 137.58 53.33 139.13 53.30 140.57 53.78 C 141.41 54.64 141.31 56.04 141.71 57.12 L 140.97 57.36 C 136.71 57.67 132.42 57.66 128.16 57.33 C 127.14 57.40 126.12 57.48 125.11 57.57 C 123.64 55.31 120.60 56.64 122.18 59.19 C 121.87 59.32 121.26 59.58 120.95 59.71 C 120.96 59.09 120.97 57.85 120.97 57.23 C 115.58 57.50 110.18 57.84 104.80 58.28 L 103.95 58.35 C 103.95 58.78 103.95 59.64 103.95 60.08 C 109.46 61.40 115.19 59.90 120.78 59.78 C 120.39 60.10 119.61 60.75 119.22 61.08 L 118.68 61.55 C 113.49 62.72 108.10 62.17 102.83 62.31 C 102.53 62.85 102.24 63.38 101.95 63.92 C 101.09 63.50 100.24 63.09 99.39 62.67 C 98.66 63.01 97.92 63.33 97.18 63.64 C 96.84 63.51 96.16 63.24 95.82 63.11 C 96.86 61.99 97.90 60.87 98.93 59.75 C 95.74 59.66 92.56 59.67 89.37 59.62 C 91.57 57.87 91.86 55.14 91.42 52.54 C 91.77 52.54 92.46 52.54 92.81 52.54 C 93.28 53.26 93.75 53.98 94.22 54.71 C 94.48 54.59 95.01 54.34 95.27 54.22 C 95.81 53.98 96.88 53.51 97.42 53.28 C 97.47 52.57 97.57 51.15 97.61 50.43 C 98.80 50.33 100.00 50.22 101.19 50.11 C 101.39 51.57 101.61 53.03 101.85 54.48 C 102.83 52.19 102.81 49.67 102.77 47.22 C 103.71 46.27 104.65 45.33 105.60 44.39 M 99.01 59.93 C 99.08 61.83 101.78 60.85 102.99 61.28 C 102.99 60.35 102.99 58.50 102.99 57.57 C 101.64 58.33 100.27 59.05 99.01 59.93 Z" />
</g>
<g id="#f7f5eaff">
<path fill="#f7f5ea" opacity="1.00" d=" M 108.13 44.89 C 108.41 44.50 108.99 43.72 109.28 43.33 C 109.32 45.51 109.29 47.70 109.22 49.88 C 109.93 49.88 111.35 49.87 112.06 49.87 C 111.42 48.59 110.66 47.35 110.29 45.96 C 110.92 45.24 112.18 43.79 112.81 43.07 C 112.64 44.02 112.28 45.94 112.10 46.89 C 113.10 49.46 114.41 51.88 115.61 54.36 C 114.95 53.82 113.65 52.75 113.00 52.21 C 112.26 52.43 110.78 52.85 110.04 53.07 C 110.39 52.48 111.08 51.30 111.42 50.72 C 110.65 50.60 109.11 50.36 108.34 50.24 C 108.48 51.44 108.62 52.64 108.77 53.84 C 107.95 53.06 107.14 52.29 106.32 51.52 C 106.95 50.67 107.57 49.81 108.20 48.95 C 107.66 48.68 106.58 48.13 106.04 47.86 C 106.40 47.63 107.12 47.18 107.48 46.96 C 107.64 46.44 107.96 45.40 108.13 44.89 Z" />
<path fill="#f7f5ea" opacity="1.00" d=" M 121.62 47.02 C 122.04 45.59 122.45 44.17 122.83 42.74 C 123.52 44.17 124.21 45.60 124.91 47.03 C 124.47 47.53 123.59 48.55 123.15 49.06 C 124.41 49.94 125.68 50.82 126.95 51.70 C 126.65 52.10 126.05 52.90 125.75 53.30 C 125.17 52.25 124.58 51.21 124.00 50.16 C 123.17 50.93 122.34 51.70 121.51 52.47 C 120.93 52.47 119.76 52.46 119.18 52.46 C 119.41 52.18 119.87 51.63 120.10 51.35 C 121.38 51.28 122.01 50.61 121.97 49.34 C 121.44 49.64 120.37 50.24 119.84 50.55 C 119.44 50.05 118.65 49.05 118.26 48.56 C 119.27 48.12 120.28 47.68 121.28 47.20 L 121.62 47.02 Z" />
<path fill="#f7f5ea" opacity="1.00" d=" M 163.65 45.77 C 163.91 45.94 164.43 46.28 164.69 46.45 C 165.21 47.10 165.71 47.76 166.20 48.43 C 164.24 48.29 163.74 51.30 165.02 52.39 C 165.43 51.61 166.26 50.04 166.67 49.25 C 167.27 50.55 167.39 51.90 167.03 53.30 C 164.58 53.25 162.12 53.31 159.66 53.23 L 158.38 53.10 C 158.77 51.44 159.70 50.01 160.61 48.60 C 160.56 49.50 160.46 51.31 160.41 52.22 C 163.50 51.66 162.96 48.03 163.65 45.77 Z" />
<path fill="#f7f5ea" opacity="1.00" d=" M 148.55 184.11 L 148.85 184.01 C 152.11 183.27 155.64 183.86 157.04 187.25 C 156.93 189.52 155.38 192.40 153.17 192.89 L 151.89 192.71 L 151.39 192.63 C 152.36 191.53 153.35 190.43 154.29 189.30 C 154.64 188.89 155.34 188.07 155.69 187.65 C 152.09 187.27 148.15 188.33 144.80 186.95 C 144.31 185.02 147.40 184.96 148.55 184.11 Z" />
</g>
<g id="#902107ff">
<path fill="#902107" opacity="1.00" d=" M 107.00 46.29 C 107.28 45.94 107.84 45.24 108.13 44.89 C 107.96 45.40 107.64 46.44 107.48 46.96 L 107.00 46.29 Z" />
<path fill="#902107" opacity="1.00" d=" M 74.25 55.22 C 74.70 55.83 74.70 55.83 74.25 55.22 Z" />
<path fill="#902107" opacity="1.00" d=" M 102.64 212.78 C 103.50 211.07 104.26 209.30 105.53 207.85 C 109.77 210.39 113.84 213.23 118.26 215.46 C 115.59 217.56 112.45 218.89 109.52 220.57 C 105.70 218.42 101.98 216.10 98.25 213.80 C 99.71 213.49 101.27 213.43 102.64 212.78 Z" />
</g>
<g id="#8091b6ff">
<path fill="#8091b6" opacity="1.00" d=" M 175.93 45.55 C 176.74 44.57 177.72 44.49 178.89 45.32 C 178.87 45.63 178.84 46.25 178.82 46.56 C 177.75 46.70 176.78 46.36 175.93 45.55 Z" />
</g>
<g id="#0125fdff">
<path fill="#0125fd" opacity="1.00" d=" M 196.29 44.91 C 199.83 45.46 203.36 46.16 206.82 47.15 C 207.58 73.43 206.95 99.75 207.20 126.05 C 207.49 133.48 206.70 140.89 206.64 148.31 C 206.44 153.14 204.87 157.80 203.33 162.34 C 200.55 168.48 197.80 174.79 193.33 179.92 C 189.60 184.63 185.54 189.11 180.85 192.88 C 176.61 196.22 172.90 200.23 168.17 202.90 C 160.25 207.45 152.93 213.03 144.61 216.86 C 140.70 218.60 137.04 220.83 133.07 222.42 C 128.00 220.60 123.23 217.68 118.26 215.46 C 113.84 213.23 109.77 210.39 105.53 207.85 C 101.22 205.31 97.01 202.61 92.93 199.71 C 87.02 194.29 80.09 189.87 75.25 183.37 C 73.32 180.99 71.38 178.62 69.53 176.18 C 65.83 170.78 63.35 164.70 60.75 158.72 C 60.26 154.08 58.49 149.65 58.32 144.95 C 60.30 138.43 58.49 131.57 59.03 124.89 C 61.45 129.44 65.73 132.47 68.62 136.66 C 72.49 140.74 79.68 141.75 81.03 147.95 C 81.66 143.79 81.81 139.56 82.79 135.46 C 83.08 138.36 83.31 141.26 83.61 144.16 C 85.08 156.39 95.93 166.04 107.95 167.40 C 112.12 167.94 116.37 167.55 120.44 166.54 C 124.30 165.19 129.28 164.51 130.82 160.11 C 132.77 158.07 134.83 156.15 136.83 154.16 C 137.64 154.53 138.45 154.89 139.26 155.25 C 140.18 154.98 141.10 154.59 142.07 154.53 C 142.47 155.68 142.84 156.84 143.17 158.01 C 141.59 160.72 140.30 163.86 140.81 167.06 C 141.37 169.94 143.24 172.28 144.88 174.63 C 153.65 166.49 162.08 157.98 170.87 149.86 C 174.76 146.36 178.26 142.31 180.33 137.46 C 184.34 128.27 182.12 116.80 175.05 109.70 C 176.62 108.33 178.46 106.66 176.91 104.54 C 180.77 100.84 180.19 94.95 181.21 90.11 C 182.62 83.54 180.57 76.98 180.72 70.38 C 180.74 67.80 179.12 65.64 178.66 63.16 C 182.22 63.66 185.77 64.32 189.36 64.60 C 190.47 65.49 191.59 66.38 192.72 67.26 L 193.16 67.22 C 193.53 66.06 193.90 64.90 194.27 63.75 C 193.77 63.74 192.78 63.72 192.28 63.71 C 190.53 63.59 188.78 63.42 187.03 63.27 C 187.31 62.80 187.86 61.86 188.14 61.39 C 189.12 60.40 190.12 59.42 191.13 58.45 C 191.60 58.60 192.55 58.90 193.03 59.05 L 193.13 59.08 L 194.43 59.97 C 195.85 59.98 197.28 59.88 198.71 59.80 C 198.79 58.51 198.87 57.23 198.96 55.95 C 197.55 56.25 196.15 56.55 194.74 56.85 C 195.14 55.47 195.55 54.09 195.95 52.71 C 196.65 52.65 198.04 52.53 198.74 52.47 C 198.01 51.24 197.29 50.01 196.57 48.78 C 196.48 48.26 196.31 47.24 196.22 46.72 C 196.24 46.27 196.27 45.36 196.29 44.91 M 148.85 184.01 L 148.55 184.11 C 146.82 183.64 145.18 184.09 143.63 184.86 C 143.61 186.18 143.80 187.47 144.21 188.73 C 147.50 189.46 150.94 189.25 154.29 189.30 C 153.35 190.43 152.36 191.53 151.39 192.63 L 151.89 192.71 C 150.16 192.94 148.95 194.45 147.31 194.99 C 146.04 194.87 144.78 194.74 143.52 194.61 C 143.80 193.01 144.98 191.06 143.33 189.84 C 142.47 188.37 141.39 187.03 140.06 185.98 C 139.40 183.24 136.72 185.40 134.94 185.62 L 135.15 186.08 C 134.19 187.16 132.99 188.10 132.34 189.42 C 132.09 188.69 131.60 187.23 131.35 186.51 L 132.30 186.23 C 130.93 183.22 126.12 185.06 124.21 186.99 L 123.85 186.10 L 124.05 185.41 C 120.58 186.02 122.17 190.31 121.74 192.81 C 121.42 192.67 120.76 192.38 120.44 192.23 C 121.11 189.70 122.32 186.14 119.62 184.36 C 119.68 184.00 119.82 183.29 119.88 182.94 C 116.85 183.03 112.49 181.38 110.65 184.63 C 109.31 185.30 108.15 186.27 107.01 187.23 C 110.97 188.08 115.03 187.91 119.04 187.63 C 116.12 191.95 111.77 196.15 106.20 196.08 C 106.49 197.97 108.57 198.58 110.00 199.40 L 109.75 200.31 C 115.12 200.93 120.45 199.87 125.73 199.01 L 126.20 199.59 L 126.62 199.13 C 128.80 198.68 130.95 198.04 133.07 197.32 C 136.31 201.69 141.93 197.51 146.30 199.05 C 149.91 199.63 153.69 199.20 157.12 197.96 C 157.89 196.79 158.53 195.54 159.05 194.23 C 156.36 194.51 153.67 194.88 150.98 195.22 C 151.53 194.64 152.62 193.47 153.17 192.89 C 155.38 192.40 156.93 189.52 157.04 187.25 C 157.75 185.41 157.65 183.26 155.36 182.76 C 153.29 182.41 149.26 180.94 148.85 184.01 Z" />
</g>
<g id="#0152feff">
<path fill="#0152fe" opacity="1.00" d=" M 59.39 47.41 C 62.70 46.48 66.40 44.71 69.62 46.84 C 69.02 48.82 68.62 50.89 69.13 52.95 C 68.59 55.05 67.58 57.10 67.90 59.33 C 68.14 60.96 68.81 62.50 69.55 63.97 C 69.25 64.27 68.64 64.87 68.34 65.18 L 68.83 65.75 C 69.31 65.97 70.28 66.40 70.76 66.62 L 71.82 67.13 C 68.60 74.26 67.69 82.34 68.84 90.05 C 69.34 93.89 69.56 97.98 71.79 101.31 C 74.35 105.34 76.22 109.97 79.99 113.07 C 83.10 115.71 85.63 118.98 89.06 121.24 C 89.90 118.90 90.47 116.47 90.70 113.99 C 91.26 116.35 92.13 118.61 93.10 120.83 C 86.51 126.54 82.57 135.40 83.61 144.16 C 83.31 141.26 83.08 138.36 82.79 135.46 C 82.83 135.18 82.91 134.62 82.95 134.34 C 82.10 134.46 81.25 134.58 80.41 134.70 C 80.57 134.20 80.88 133.18 81.04 132.67 C 76.09 128.73 71.05 124.87 66.68 120.28 C 64.40 117.89 63.53 114.39 60.77 112.44 C 60.15 110.54 59.61 108.61 59.22 106.65 C 59.03 99.43 58.37 92.24 58.58 85.01 C 58.26 72.47 59.47 59.96 59.39 47.41 Z" />
</g>
<g id="#044efbff">
<path fill="#044efb" opacity="1.00" d=" M 208.09 45.91 C 208.33 49.11 208.24 52.32 208.38 55.52 C 208.14 63.89 208.32 72.25 208.32 80.62 C 208.20 85.94 208.32 91.26 208.33 96.57 C 208.24 101.91 208.29 107.25 208.35 112.58 C 208.06 117.05 208.72 121.50 208.64 125.96 C 207.42 131.98 209.39 138.14 208.04 144.09 C 208.12 130.72 208.10 117.34 208.12 103.97 C 208.31 84.62 207.66 65.27 208.09 45.91 Z" />
<path fill="#044efb" opacity="1.00" d=" M 146.08 118.12 C 151.32 114.75 158.47 116.11 162.80 120.35 C 162.10 122.33 161.43 124.32 160.79 126.31 C 159.21 125.36 157.42 124.90 155.60 124.70 C 148.33 123.04 141.66 127.57 134.65 128.68 C 138.11 124.82 141.78 121.05 146.08 118.12 Z" />
</g>
<g id="#324cc5ff">
<path fill="#324cc5" opacity="1.00" d=" M 173.53 50.95 C 172.35 49.72 173.73 46.64 175.52 47.47 C 175.45 48.91 174.49 49.98 173.53 50.95 Z" />
</g>
<g id="#5b6a97ff">
<path fill="#5b6a97" opacity="1.00" d=" M 176.11 47.14 C 179.36 47.49 174.46 50.12 176.11 47.14 Z" />
</g>
<g id="#3046c8ff">
<path fill="#3046c8" opacity="1.00" d=" M 187.94 47.65 C 190.07 47.22 192.24 47.36 194.28 48.16 L 194.38 48.18 L 194.47 48.21 L 196.57 48.78 C 197.29 50.01 198.01 51.24 198.74 52.47 C 198.04 52.53 196.65 52.65 195.95 52.71 C 195.55 54.09 195.14 55.47 194.74 56.85 C 196.15 56.55 197.55 56.25 198.96 55.95 C 198.87 57.23 198.79 58.51 198.71 59.80 C 197.28 59.88 195.85 59.98 194.43 59.97 L 193.13 59.08 C 195.07 58.88 198.39 60.28 198.35 57.17 C 196.19 58.01 193.98 57.78 191.93 56.74 C 192.21 57.32 192.76 58.47 193.03 59.05 C 192.55 58.90 191.60 58.60 191.13 58.45 C 189.21 58.01 188.33 57.04 189.98 55.44 C 190.07 55.77 190.25 56.42 190.33 56.75 C 191.49 56.55 192.61 56.18 193.75 55.88 C 194.19 54.49 194.56 53.07 194.43 51.59 C 193.11 52.75 191.66 54.79 190.60 52.10 C 191.21 51.80 192.43 51.22 193.04 50.93 C 192.43 49.94 191.83 48.95 191.23 47.96 C 190.41 47.88 188.76 47.73 187.94 47.65 M 194.98 50.18 C 194.50 51.56 194.99 51.99 196.44 51.46 C 196.93 50.08 196.44 49.66 194.98 50.18 Z" />
</g>
<g id="#408bc9ff">
<path fill="#408bc9" opacity="1.00" d=" M 132.06 47.56 C 133.12 48.05 134.18 48.53 135.23 49.03 C 134.83 49.50 134.02 50.43 133.62 50.90 C 134.33 50.94 135.74 51.02 136.44 51.06 C 135.99 51.62 135.09 52.73 134.64 53.29 L 135.83 53.28 C 135.47 53.32 134.74 53.40 134.37 53.45 C 133.51 52.04 132.66 50.62 131.88 49.17 C 131.92 48.77 132.01 47.97 132.06 47.56 Z" />
</g>
<g id="#427183ff">
<path fill="#427183" opacity="1.00" d=" M 147.08 47.99 C 147.61 48.57 147.61 48.57 147.08 47.99 Z" />
</g>
<g id="#abb7ccff">
<path fill="#abb7cc" opacity="1.00" d=" M 186.36 58.26 C 186.26 54.65 187.27 51.16 187.94 47.65 C 188.76 47.73 190.41 47.88 191.23 47.96 C 191.83 48.95 192.43 49.94 193.04 50.93 C 192.43 51.22 191.21 51.80 190.60 52.10 C 190.11 52.35 189.14 52.85 188.65 53.10 C 187.57 54.66 187.11 56.54 186.36 58.26 Z" />
<path fill="#abb7cc" opacity="1.00" d=" M 128.16 57.33 C 132.42 57.66 136.71 57.67 140.97 57.36 C 140.58 57.61 139.81 58.12 139.42 58.37 C 138.50 58.52 137.57 58.62 136.64 58.68 C 132.66 58.47 128.65 58.31 124.69 58.82 C 124.79 58.51 125.01 57.88 125.11 57.57 C 126.12 57.48 127.14 57.40 128.16 57.33 Z" />
<path fill="#abb7cc" opacity="1.00" d=" M 175.42 61.39 C 179.68 60.65 184.33 64.17 188.14 61.39 C 187.86 61.86 187.31 62.80 187.03 63.27 C 188.78 63.42 190.53 63.59 192.28 63.71 C 191.55 63.93 190.09 64.37 189.36 64.60 C 185.77 64.32 182.22 63.66 178.66 63.16 L 178.43 62.47 C 177.06 62.58 175.70 62.74 174.34 62.95 C 174.61 62.56 175.15 61.78 175.42 61.39 Z" />
</g>
<g id="#bac9f0ff">
<path fill="#bac9f0" opacity="1.00" d=" M 194.28 48.16 C 194.33 48.17 194.42 48.20 194.47 48.21 L 194.38 48.18 L 194.28 48.16 Z" />
</g>
<g id="#3c7db1ff">
<path fill="#3c7db1" opacity="1.00" d=" M 97.58 48.91 C 100.70 47.34 97.63 52.16 97.58 48.91 Z" />
</g>
<g id="#4a5a8dff">
<path fill="#4a5a8d" opacity="1.00" d=" M 149.19 49.44 C 149.73 50.02 149.73 50.02 149.19 49.44 Z" />
</g>
<g id="#777db2ff">
<path fill="#777db2" opacity="1.00" d=" M 177.99 50.29 C 178.76 48.71 180.84 50.19 180.44 51.58 C 179.83 51.26 178.60 50.61 177.99 50.29 Z" />
</g>
<g id="#92b3f1ff">
<path fill="#92b3f1" opacity="1.00" d=" M 194.98 50.18 C 196.44 49.66 196.93 50.08 196.44 51.46 C 194.99 51.99 194.50 51.56 194.98 50.18 Z" />
</g>
<g id="#51839eff">
<path fill="#51839e" opacity="1.00" d=" M 83.55 51.59 L 83.73 51.58 L 83.71 51.63 C 83.67 51.62 83.59 51.60 83.55 51.59 Z" />
</g>
<g id="#0574f9ff">
<path fill="#0574f9" opacity="1.00" d=" M 90.88 51.34 L 90.90 51.35 C 91.03 51.65 91.29 52.24 91.42 52.54 C 91.86 55.14 91.57 57.87 89.37 59.62 C 87.61 59.89 85.80 60.09 84.20 60.94 L 83.59 61.50 L 82.93 62.10 C 82.54 62.06 81.78 61.98 81.40 61.94 C 80.74 61.89 79.44 61.79 78.79 61.74 C 79.66 58.78 80.99 55.99 82.11 53.12 C 84.43 56.49 88.85 53.66 90.88 51.34 Z" />
</g>
<g id="#cc9236ff">
<path fill="#cc9236" opacity="1.00" d=" M 177.58 52.37 C 177.63 52.45 177.73 52.60 177.79 52.67 L 177.58 52.37 Z" />
<path fill="#cc9236" opacity="1.00" d=" M 214.47 64.07 C 214.66 60.26 215.11 56.47 215.87 52.73 C 216.38 58.37 216.57 64.04 215.82 69.67 C 215.50 71.97 215.11 74.26 214.76 76.55 C 214.53 76.37 214.07 76.00 213.84 75.82 C 212.80 75.60 211.76 75.39 210.73 75.19 C 210.11 77.08 209.36 78.92 208.32 80.62 C 208.32 72.25 208.14 63.89 208.38 55.52 C 209.71 57.39 208.86 61.93 211.99 61.56 C 212.44 59.98 212.92 58.42 213.44 56.86 C 213.83 59.26 214.17 61.66 214.47 64.07 Z" />
</g>
<g id="#2a6988ff">
<path fill="#2a6988" opacity="1.00" d=" M 70.19 54.17 C 70.23 54.00 70.31 53.67 70.36 53.50 L 70.59 53.90 L 70.19 54.17 Z" />
</g>
<g id="#0547f4ff">
<path fill="#0547f4" opacity="1.00" d=" M 159.66 53.23 C 162.12 53.31 164.58 53.25 167.03 53.30 C 166.99 53.58 166.90 54.14 166.86 54.42 C 168.60 55.75 170.17 57.30 171.41 59.13 C 168.93 59.72 166.34 59.77 163.87 59.12 L 162.63 58.75 L 161.72 58.50 C 160.28 58.39 158.84 58.37 157.41 58.33 C 157.97 56.55 158.70 54.83 159.66 53.23 Z" />
</g>
<g id="#47aee2ff">
<path fill="#47aee2" opacity="1.00" d=" M 122.18 59.19 C 120.60 56.64 123.64 55.31 125.11 57.57 C 125.01 57.88 124.79 58.51 124.69 58.82 C 124.06 58.91 122.80 59.10 122.18 59.19 Z" />
</g>
<g id="#55bfe0ff">
<path fill="#55bfe0" opacity="1.00" d=" M 104.80 58.28 C 110.18 57.84 115.58 57.50 120.97 57.23 C 120.97 57.85 120.96 59.09 120.95 59.71 L 120.78 59.78 C 115.19 59.90 109.46 61.40 103.95 60.08 C 104.17 59.63 104.59 58.73 104.80 58.28 Z" />
</g>
<g id="#0285fcff">
<path fill="#0285fc" opacity="1.00" d=" M 140.97 57.36 L 141.71 57.12 L 142.12 57.00 C 142.73 59.36 142.92 61.79 142.67 64.21 C 143.81 65.71 145.43 66.79 146.47 68.37 C 146.76 69.79 146.67 71.26 146.61 72.70 C 146.16 72.81 145.25 73.02 144.80 73.13 C 141.10 71.32 137.33 69.66 133.32 68.67 C 133.56 64.92 130.19 63.11 127.77 60.94 C 130.63 59.83 133.65 59.32 136.64 58.68 C 137.57 58.62 138.50 58.52 139.42 58.37 C 139.81 58.12 140.58 57.61 140.97 57.36 Z" />
</g>
<g id="#026efbff">
<path fill="#026efb" opacity="1.00" d=" M 142.12 57.00 C 143.25 56.93 143.99 57.36 144.33 58.30 C 144.37 58.42 144.45 58.66 144.49 58.78 C 144.92 59.86 145.81 60.30 147.16 60.13 C 148.76 60.26 150.38 60.24 151.99 60.30 C 152.98 67.03 156.13 73.24 157.04 79.98 C 157.37 86.15 155.51 92.18 153.67 97.99 C 154.13 98.75 154.60 99.51 155.06 100.28 C 152.65 100.34 150.27 100.69 147.87 100.95 C 147.26 100.84 146.04 100.62 145.42 100.51 C 145.34 99.94 145.17 98.81 145.08 98.25 C 146.51 98.06 147.95 97.87 149.38 97.69 C 148.37 95.96 147.47 94.17 146.72 92.32 C 151.25 87.48 150.50 79.71 146.11 75.05 C 145.78 74.57 145.13 73.61 144.80 73.13 C 145.25 73.02 146.16 72.81 146.61 72.70 C 146.67 71.26 146.76 69.79 146.47 68.37 C 145.43 66.79 143.81 65.71 142.67 64.21 C 142.92 61.79 142.73 59.36 142.12 57.00 Z" />
</g>
<g id="#b3d1f0ff">
<path fill="#b3d1f0" opacity="1.00" d=" M 191.93 56.74 C 193.98 57.78 196.19 58.01 198.35 57.17 C 198.39 60.28 195.07 58.88 193.13 59.08 L 193.03 59.05 C 192.76 58.47 192.21 57.32 191.93 56.74 Z" />
</g>
<g id="#58c8ebff">
<path fill="#58c8eb" opacity="1.00" d=" M 99.01 59.93 C 100.27 59.05 101.64 58.33 102.99 57.57 C 102.99 58.50 102.99 60.35 102.99 61.28 C 101.78 60.85 99.08 61.83 99.01 59.93 Z" />
</g>
<g id="#64cfe5ff">
<path fill="#64cfe5" opacity="1.00" d=" M 103.95 58.35 L 104.80 58.28 C 104.59 58.73 104.17 59.63 103.95 60.08 C 103.95 59.64 103.95 58.78 103.95 58.35 Z" />
</g>
<g id="#83caffff">
<path fill="#83caff" opacity="1.00" d=" M 144.49 58.78 C 144.45 58.66 144.37 58.42 144.33 58.30 C 144.37 58.42 144.45 58.66 144.49 58.78 Z" />
</g>
<g id="#1b59d4ff">
<path fill="#1b59d4" opacity="1.00" d=" M 157.41 58.33 C 158.84 58.37 160.28 58.39 161.72 58.50 C 160.47 59.29 160.67 62.28 162.57 60.76 C 162.58 60.26 162.61 59.25 162.63 58.75 L 163.87 59.12 C 163.94 59.88 164.10 61.39 164.17 62.15 C 163.32 62.12 161.61 62.07 160.76 62.05 C 159.32 61.68 157.91 61.23 156.48 60.82 C 158.07 61.29 159.26 61.00 160.06 59.97 C 159.61 58.89 158.73 58.35 157.41 58.33 Z" />
</g>
<g id="#019afeff">
<path fill="#019afe" opacity="1.00" d=" M 122.18 59.19 C 122.80 59.10 124.06 58.91 124.69 58.82 C 128.65 58.31 132.66 58.47 136.64 58.68 C 133.65 59.32 130.63 59.83 127.77 60.94 C 130.19 63.11 133.56 64.92 133.32 68.67 C 131.30 70.59 129.70 72.90 128.87 75.58 C 127.90 77.25 126.85 78.88 125.86 80.54 C 125.96 77.77 125.55 74.98 124.40 72.45 C 125.54 72.10 126.68 71.75 127.82 71.40 C 121.20 70.39 114.89 65.05 108.08 68.04 C 99.70 71.24 97.35 81.74 99.27 89.69 C 100.71 93.14 103.81 96.23 107.66 96.69 C 109.59 96.94 111.05 98.28 112.52 99.44 C 114.10 98.35 115.84 97.56 117.70 97.10 C 113.48 101.47 108.90 105.46 104.54 109.69 C 103.00 109.57 101.46 109.46 99.93 109.35 C 100.47 108.67 101.02 107.99 101.57 107.31 C 98.25 104.95 93.21 104.54 91.56 100.34 C 89.87 97.12 87.67 94.18 86.13 90.89 C 84.11 86.51 85.00 81.58 85.60 76.99 C 85.99 70.98 90.90 66.77 94.79 62.71 L 95.82 63.11 C 96.16 63.24 96.84 63.51 97.18 63.64 C 97.92 63.33 98.66 63.01 99.39 62.67 C 100.24 63.09 101.09 63.50 101.95 63.92 C 102.24 63.38 102.53 62.85 102.83 62.31 C 108.10 62.17 113.49 62.72 118.68 61.55 L 119.22 61.08 C 119.61 60.75 120.39 60.10 120.78 59.78 L 120.95 59.71 C 121.26 59.58 121.87 59.32 122.18 59.19 Z" />
</g>
<g id="#5895f4ff">
<path fill="#5895f4" opacity="1.00" d=" M 162.57 60.76 C 160.67 62.28 160.47 59.29 161.72 58.50 L 162.63 58.75 C 162.61 59.25 162.58 60.26 162.57 60.76 Z" />
</g>
<g id="#5f90ddff">
<path fill="#5f90dd" opacity="1.00" d=" M 163.87 59.12 C 166.34 59.77 168.93 59.72 171.41 59.13 C 171.30 59.91 171.08 61.46 170.97 62.23 C 168.87 62.19 166.77 62.17 164.67 62.17 L 164.17 62.15 C 164.10 61.39 163.94 59.88 163.87 59.12 Z" />
</g>
<g id="#298bd0ff">
<path fill="#298bd0" opacity="1.00" d=" M 84.20 60.94 C 85.80 60.09 87.61 59.89 89.37 59.62 C 88.47 60.76 87.58 61.92 86.66 63.06 C 85.32 63.32 83.96 63.52 82.61 63.74 C 82.69 63.33 82.85 62.51 82.93 62.10 L 83.59 61.50 C 83.92 64.01 86.63 61.51 84.20 60.94 Z" />
</g>
<g id="#60bedeff">
<path fill="#60bede" opacity="1.00" d=" M 89.37 59.62 C 92.56 59.67 95.74 59.66 98.93 59.75 C 97.90 60.87 96.86 61.99 95.82 63.11 L 94.79 62.71 C 92.08 62.38 89.34 62.56 86.66 63.06 C 87.58 61.92 88.47 60.76 89.37 59.62 Z" />
</g>
<g id="#91c0f4ff">
<path fill="#91c0f4" opacity="1.00" d=" M 173.03 60.41 C 176.20 60.69 171.47 63.52 173.03 60.41 Z" />
</g>
<g id="#6bcefaff">
<path fill="#6bcefa" opacity="1.00" d=" M 84.20 60.94 C 86.63 61.51 83.92 64.01 83.59 61.50 L 84.20 60.94 Z" />
</g>
<g id="#015ffeff">
<path fill="#015ffe" opacity="1.00" d=" M 151.99 60.30 C 153.49 60.41 154.99 60.60 156.48 60.82 C 157.91 61.23 159.32 61.68 160.76 62.05 C 160.62 62.54 160.34 63.53 160.20 64.02 C 161.24 66.61 162.52 69.17 162.88 71.97 C 163.50 79.82 162.64 87.68 162.11 95.51 C 162.82 95.80 164.25 96.39 164.97 96.69 C 163.18 96.64 161.38 96.61 159.59 96.63 C 160.81 97.87 162.22 98.90 163.72 99.76 C 161.97 99.94 160.22 100.15 158.46 100.31 C 157.33 100.28 156.19 100.27 155.06 100.28 C 154.60 99.51 154.13 98.75 153.67 97.99 C 155.51 92.18 157.37 86.15 157.04 79.98 C 156.13 73.24 152.98 67.03 151.99 60.30 Z" />
</g>
<g id="#3b89dbff">
<path fill="#3b89db" opacity="1.00" d=" M 69.98 64.69 C 71.73 63.40 73.84 62.75 75.93 62.24 C 75.26 65.48 79.72 63.85 76.65 62.08 C 77.18 62.00 78.25 61.83 78.79 61.74 C 79.44 61.79 80.74 61.89 81.40 61.94 C 80.32 62.14 78.56 63.52 80.11 64.45 C 77.03 65.32 73.91 66.06 70.76 66.62 C 70.28 66.40 69.31 65.97 68.83 65.75 C 69.11 65.48 69.69 64.95 69.98 64.69 M 72.16 64.11 C 72.31 67.43 75.16 62.63 72.16 64.11 Z" />
</g>
<g id="#77c2e6ff">
<path fill="#77c2e6" opacity="1.00" d=" M 75.93 62.24 L 76.65 62.08 C 79.72 63.85 75.26 65.48 75.93 62.24 Z" />
</g>
<g id="#6ac0eaff">
<path fill="#6ac0ea" opacity="1.00" d=" M 81.40 61.94 C 81.78 61.98 82.54 62.06 82.93 62.10 C 82.85 62.51 82.69 63.33 82.61 63.74 C 81.98 63.92 80.74 64.27 80.11 64.45 C 78.56 63.52 80.32 62.14 81.40 61.94 Z" />
</g>
<g id="#014efdff">
<path fill="#014efd" opacity="1.00" d=" M 160.76 62.05 C 161.61 62.07 163.32 62.12 164.17 62.15 L 164.67 62.17 C 165.26 62.36 166.43 62.73 167.02 62.92 C 169.03 67.38 170.49 72.07 170.34 77.02 C 171.38 82.96 170.93 88.99 169.72 94.87 C 169.02 96.20 167.87 97.21 166.90 98.33 C 167.51 99.78 167.00 101.28 166.74 102.74 C 164.05 101.71 161.27 100.95 158.46 100.31 C 160.22 100.15 161.97 99.94 163.72 99.76 C 162.22 98.90 160.81 97.87 159.59 96.63 C 161.38 96.61 163.18 96.64 164.97 96.69 C 164.25 96.39 162.82 95.80 162.11 95.51 C 162.64 87.68 163.50 79.82 162.88 71.97 C 162.52 69.17 161.24 66.61 160.20 64.02 C 160.34 63.53 160.62 62.54 160.76 62.05 Z" />
</g>
<g id="#0177feff">
<path fill="#0177fe" opacity="1.00" d=" M 82.61 63.74 C 83.96 63.52 85.32 63.32 86.66 63.06 C 89.34 62.56 92.08 62.38 94.79 62.71 C 90.90 66.77 85.99 70.98 85.60 76.99 C 85.00 81.58 84.11 86.51 86.13 90.89 C 87.67 94.18 89.87 97.12 91.56 100.34 C 93.21 104.54 98.25 104.95 101.57 107.31 C 101.02 107.99 100.47 108.67 99.93 109.35 C 101.46 109.46 103.00 109.57 104.54 109.69 C 100.68 113.36 96.97 117.17 93.10 120.83 C 92.13 118.61 91.26 116.35 90.70 113.99 C 90.47 116.47 89.90 118.90 89.06 121.24 C 85.63 118.98 83.10 115.71 79.99 113.07 C 76.22 109.97 74.35 105.34 71.79 101.31 C 69.56 97.98 69.34 93.89 68.84 90.05 C 67.69 82.34 68.60 74.26 71.82 67.13 L 70.76 66.62 C 73.91 66.06 77.03 65.32 80.11 64.45 C 80.74 64.27 81.98 63.92 82.61 63.74 Z" />
</g>
<g id="#0238feff">
<path fill="#0238fe" opacity="1.00" d=" M 167.02 62.92 C 169.41 63.66 171.94 63.61 174.34 62.95 C 175.70 62.74 177.06 62.58 178.43 62.47 L 178.66 63.16 C 179.12 65.64 180.74 67.80 180.72 70.38 C 180.57 76.98 182.62 83.54 181.21 90.11 C 180.19 94.95 180.77 100.84 176.91 104.54 C 178.46 106.66 176.62 108.33 175.05 109.70 C 174.65 109.29 173.85 108.47 173.45 108.06 C 171.85 105.58 169.39 103.93 166.74 102.74 C 167.00 101.28 167.51 99.78 166.90 98.33 C 167.87 97.21 169.02 96.20 169.72 94.87 C 170.93 88.99 171.38 82.96 170.34 77.02 C 170.49 72.07 169.03 67.38 167.02 62.92 Z" />
</g>
<g id="#6ec4f9ff">
<path fill="#6ec4f9" opacity="1.00" d=" M 68.34 65.18 C 68.64 64.87 69.25 64.27 69.55 63.97 L 69.98 64.69 C 69.69 64.95 69.11 65.48 68.83 65.75 L 68.34 65.18 Z" />
</g>
<g id="#7bc4d0ff">
<path fill="#7bc4d0" opacity="1.00" d=" M 72.16 64.11 C 75.16 62.63 72.31 67.43 72.16 64.11 Z" />
</g>
<g id="#01affeff">
<path fill="#01affe" opacity="1.00" d=" M 108.08 68.04 C 114.89 65.05 121.20 70.39 127.82 71.40 C 126.68 71.75 125.54 72.10 124.40 72.45 C 125.55 74.98 125.96 77.77 125.86 80.54 C 125.35 84.22 125.70 88.05 127.74 91.25 C 126.94 90.52 126.12 89.81 125.30 89.11 C 125.50 92.13 126.13 95.08 127.11 97.94 C 126.25 98.49 125.39 99.03 124.57 99.62 C 124.01 98.49 123.39 97.38 122.79 96.27 C 122.30 95.80 121.32 94.87 120.84 94.40 C 119.80 95.31 118.76 96.21 117.70 97.10 C 115.84 97.56 114.10 98.35 112.52 99.44 C 111.05 98.28 109.59 96.94 107.66 96.69 C 103.81 96.23 100.71 93.14 99.27 89.69 C 97.35 81.74 99.70 71.24 108.08 68.04 M 104.27 80.16 C 103.94 82.81 103.52 85.83 104.74 88.31 C 106.72 90.14 109.27 91.47 111.94 91.97 C 114.73 90.98 117.44 89.70 120.48 89.71 C 120.81 85.50 121.22 81.29 121.92 77.11 C 118.80 75.60 115.60 74.21 112.68 72.33 C 108.75 73.45 106.84 77.33 104.27 80.16 Z" />
</g>
<g id="#0c92edff">
<path fill="#0c92ed" opacity="1.00" d=" M 128.87 75.58 C 129.70 72.90 131.30 70.59 133.32 68.67 C 137.33 69.66 141.10 71.32 144.80 73.13 C 145.13 73.61 145.78 74.57 146.11 75.05 C 141.06 71.19 133.59 71.16 128.87 75.58 Z" />
</g>
<g id="#c48129ff">
<path fill="#c48129" opacity="1.00" d=" M 214.76 76.55 C 215.11 74.26 215.50 71.97 215.82 69.67 C 215.93 71.78 216.12 73.90 216.27 76.01 C 216.16 77.33 216.06 78.65 215.98 79.97 C 215.95 80.41 215.89 81.30 215.86 81.74 C 215.06 86.43 214.87 91.19 214.59 95.94 C 214.08 94.16 213.58 92.39 213.08 90.62 C 212.49 92.01 211.90 93.40 211.32 94.80 C 211.09 93.99 210.86 93.18 210.64 92.37 C 209.88 93.78 209.11 95.18 208.33 96.57 C 208.32 91.26 208.20 85.94 208.32 80.62 C 209.36 78.92 210.11 77.08 210.73 75.19 C 211.76 75.39 212.80 75.60 213.84 75.82 C 214.07 76.00 214.53 76.37 214.76 76.55 Z" />
</g>
<g id="#01bffeff">
<path fill="#01bffe" opacity="1.00" d=" M 104.27 80.16 C 106.84 77.33 108.75 73.45 112.68 72.33 C 115.60 74.21 118.80 75.60 121.92 77.11 C 121.22 81.29 120.81 85.50 120.48 89.71 C 117.44 89.70 114.73 90.98 111.94 91.97 C 109.27 91.47 106.72 90.14 104.74 88.31 C 103.52 85.83 103.94 82.81 104.27 80.16 Z" />
</g>
<g id="#fefefdff">
<path fill="#fefefd" opacity="1.00" d=" M 128.87 75.58 C 133.59 71.16 141.06 71.19 146.11 75.05 C 150.50 79.71 151.25 87.48 146.72 92.32 C 143.80 95.52 139.25 96.97 135.01 96.02 C 131.98 95.60 129.87 93.20 127.74 91.25 C 125.70 88.05 125.35 84.22 125.86 80.54 C 126.85 78.88 127.90 77.25 128.87 75.58 Z" />
</g>
<g id="#bb6c1fff">
<path fill="#bb6c1f" opacity="1.00" d=" M 214.59 95.94 C 214.87 91.19 215.06 86.43 215.86 81.74 C 216.05 88.85 215.75 95.97 216.10 103.08 C 215.59 106.19 215.10 109.31 215.05 112.46 C 214.57 110.67 214.00 108.91 213.45 107.14 C 212.69 107.58 211.94 108.02 211.19 108.47 C 210.93 107.68 210.68 106.89 210.43 106.11 C 210.19 108.40 209.83 110.72 208.35 112.58 C 208.29 107.25 208.24 101.91 208.33 96.57 C 209.11 95.18 209.88 93.78 210.64 92.37 C 210.86 93.18 211.09 93.99 211.32 94.80 C 211.90 93.40 212.49 92.01 213.08 90.62 C 213.58 92.39 214.08 94.16 214.59 95.94 Z" />
</g>
<g id="#0485fcff">
<path fill="#0485fc" opacity="1.00" d=" M 125.30 89.11 C 126.12 89.81 126.94 90.52 127.74 91.25 C 129.87 93.20 131.98 95.60 135.01 96.02 C 139.25 96.97 143.80 95.52 146.72 92.32 C 147.47 94.17 148.37 95.96 149.38 97.69 C 147.95 97.87 146.51 98.06 145.08 98.25 C 145.17 98.81 145.34 99.94 145.42 100.51 C 146.04 100.62 147.26 100.84 147.87 100.95 C 145.68 102.18 143.62 103.63 141.48 104.96 C 138.62 106.48 135.83 108.20 133.48 110.45 C 128.17 115.51 122.78 120.46 117.52 125.57 C 116.47 125.30 115.42 125.02 114.37 124.72 C 114.81 124.25 115.24 123.78 115.68 123.31 C 115.09 122.23 114.51 121.15 113.93 120.08 C 118.09 115.82 123.39 111.99 124.89 105.90 C 125.61 103.84 124.94 101.68 124.57 99.62 C 125.39 99.03 126.25 98.49 127.11 97.94 C 126.13 95.08 125.50 92.13 125.30 89.11 Z" />
</g>
<g id="#fdfefbff">
<path fill="#fdfefb" opacity="1.00" d=" M 117.70 97.10 C 118.76 96.21 119.80 95.31 120.84 94.40 C 121.32 94.87 122.30 95.80 122.79 96.27 C 123.39 97.38 124.01 98.49 124.57 99.62 C 124.94 101.68 125.61 103.84 124.89 105.90 C 123.39 111.99 118.09 115.82 113.93 120.08 C 109.72 124.46 104.98 128.31 100.96 132.87 C 97.17 139.00 100.04 147.54 106.32 150.73 C 111.02 153.57 117.33 152.90 121.55 149.48 C 124.99 146.61 128.29 143.54 131.16 140.09 C 125.98 141.07 121.06 143.07 115.94 144.30 C 112.39 145.33 108.65 143.39 106.54 140.55 C 105.24 139.41 105.55 137.67 106.27 136.31 C 110.10 132.81 113.78 129.16 117.52 125.57 C 122.78 120.46 128.17 115.51 133.48 110.45 C 135.83 108.20 138.62 106.48 141.48 104.96 C 145.21 104.09 149.04 103.91 152.85 103.90 C 160.53 104.49 167.26 110.30 169.65 117.51 C 171.07 122.29 170.37 127.56 168.07 131.95 C 167.83 131.91 167.36 131.81 167.12 131.76 C 166.58 130.05 166.49 128.24 166.17 126.49 C 165.85 124.10 164.25 122.17 162.80 120.35 C 158.47 116.11 151.32 114.75 146.08 118.12 C 141.78 121.05 138.11 124.82 134.65 128.68 C 141.66 127.57 148.33 123.04 155.60 124.70 C 157.34 126.24 159.33 127.70 160.31 129.88 C 160.56 131.61 158.95 132.77 157.97 133.95 C 150.84 140.60 143.84 147.39 136.83 154.16 C 134.83 156.15 132.77 158.07 130.82 160.11 C 127.15 162.62 122.97 164.20 118.69 165.30 C 110.34 165.64 101.34 162.12 97.57 154.22 C 94.14 148.52 95.78 141.83 97.64 135.92 C 95.58 139.63 93.65 143.69 93.91 148.05 C 94.45 155.63 99.85 162.51 106.84 165.30 C 111.18 167.05 115.90 166.27 120.44 166.54 C 116.37 167.55 112.12 167.94 107.95 167.40 C 95.93 166.04 85.08 156.39 83.61 144.16 C 82.57 135.40 86.51 126.54 93.10 120.83 C 96.97 117.17 100.68 113.36 104.54 109.69 C 108.90 105.46 113.48 101.47 117.70 97.10 Z" />
</g>
<g id="#396ad4ff">
<path fill="#396ad4" opacity="1.00" d=" M 147.87 100.95 C 150.27 100.69 152.65 100.34 155.06 100.28 C 156.19 100.27 157.33 100.28 158.46 100.31 C 161.27 100.95 164.05 101.71 166.74 102.74 C 169.39 103.93 171.85 105.58 173.45 108.06 C 169.91 105.78 166.31 103.43 162.18 102.39 C 158.11 101.18 153.85 101.31 149.66 101.09 C 149.22 101.05 148.32 100.98 147.87 100.95 Z" />
</g>
<g id="#5f96d3ff">
<path fill="#5f96d3" opacity="1.00" d=" M 147.87 100.95 C 148.32 100.98 149.22 101.05 149.66 101.09 C 151.67 101.56 153.67 102.10 155.67 102.65 C 154.96 102.96 153.56 103.59 152.85 103.90 C 149.04 103.91 145.21 104.09 141.48 104.96 C 143.62 103.63 145.68 102.18 147.87 100.95 Z" />
</g>
<g id="#fdfdfaff">
<path fill="#fdfdfa" opacity="1.00" d=" M 149.66 101.09 C 153.85 101.31 158.11 101.18 162.18 102.39 C 166.31 103.43 169.91 105.78 173.45 108.06 C 173.85 108.47 174.65 109.29 175.05 109.70 C 182.12 116.80 184.34 128.27 180.33 137.46 C 178.26 142.31 174.76 146.36 170.87 149.86 C 162.08 157.98 153.65 166.49 144.88 174.63 C 143.24 172.28 141.37 169.94 140.81 167.06 C 140.30 163.86 141.59 160.72 143.17 158.01 C 149.30 149.34 158.92 143.80 165.18 135.22 C 165.60 134.88 166.46 134.20 166.89 133.86 C 171.97 128.68 173.39 120.31 170.14 113.80 C 167.54 107.95 161.81 104.00 155.67 102.65 C 153.67 102.10 151.67 101.56 149.66 101.09 Z" />
</g>
<g id="#a3420aff">
<path fill="#a3420a" opacity="1.00" d=" M 215.05 112.46 C 215.10 109.31 215.59 106.19 216.10 103.08 L 216.35 104.46 C 216.70 118.22 216.93 132.06 216.03 145.82 L 215.82 146.05 C 214.04 147.43 212.97 150.95 210.21 149.96 C 209.94 150.52 209.68 151.09 209.42 151.65 C 208.68 150.81 207.94 149.96 207.22 149.10 C 207.47 147.42 207.74 145.75 208.04 144.09 C 209.39 138.14 207.42 131.98 208.64 125.96 C 209.30 124.97 210.00 124.00 210.70 123.02 C 211.39 122.16 212.08 121.29 212.77 120.42 C 213.41 121.67 214.05 122.91 214.70 124.15 C 215.20 120.27 215.39 116.36 215.05 112.46 Z" />
</g>
<g id="#b1591bff">
<path fill="#b1591b" opacity="1.00" d=" M 210.43 106.11 C 210.68 106.89 210.93 107.68 211.19 108.47 C 211.94 108.02 212.69 107.58 213.45 107.14 C 214.00 108.91 214.57 110.67 215.05 112.46 C 215.39 116.36 215.20 120.27 214.70 124.15 C 214.05 122.91 213.41 121.67 212.77 120.42 C 212.08 121.29 211.39 122.16 210.70 123.02 C 210.00 124.00 209.30 124.97 208.64 125.96 C 208.72 121.50 208.06 117.05 208.35 112.58 C 209.83 110.72 210.19 108.40 210.43 106.11 Z" />
</g>
<g id="#0135feff">
<path fill="#0135fe" opacity="1.00" d=" M 59.22 106.65 C 59.61 108.61 60.15 110.54 60.77 112.44 C 63.53 114.39 64.40 117.89 66.68 120.28 C 71.05 124.87 76.09 128.73 81.04 132.67 C 80.88 133.18 80.57 134.20 80.41 134.70 C 81.25 134.58 82.10 134.46 82.95 134.34 C 82.91 134.62 82.83 135.18 82.79 135.46 C 81.81 139.56 81.66 143.79 81.03 147.95 C 79.68 141.75 72.49 140.74 68.62 136.66 C 65.73 132.47 61.45 129.44 59.03 124.89 C 59.16 118.81 58.81 112.72 59.22 106.65 Z" />
</g>
<g id="#0a60f8ff">
<path fill="#0a60f8" opacity="1.00" d=" M 100.96 132.87 C 104.98 128.31 109.72 124.46 113.93 120.08 C 114.51 121.15 115.09 122.23 115.68 123.31 C 115.24 123.78 114.81 124.25 114.37 124.72 C 115.42 125.02 116.47 125.30 117.52 125.57 C 113.78 129.16 110.10 132.81 106.27 136.31 C 105.87 135.82 105.06 134.84 104.65 134.35 C 103.84 134.46 103.04 134.57 102.23 134.68 C 101.91 134.22 101.28 133.32 100.96 132.87 Z" />
</g>
<g id="#062af6ff">
<path fill="#062af6" opacity="1.00" d=" M 160.79 126.31 C 161.43 124.32 162.10 122.33 162.80 120.35 C 164.25 122.17 165.85 124.10 166.17 126.49 C 165.92 129.41 165.57 132.32 165.18 135.22 C 158.92 143.80 149.30 149.34 143.17 158.01 C 142.84 156.84 142.47 155.68 142.07 154.53 C 141.10 154.59 140.18 154.98 139.26 155.25 C 138.45 154.89 137.64 154.53 136.83 154.16 C 143.84 147.39 150.84 140.60 157.97 133.95 C 158.95 132.77 160.56 131.61 160.31 129.88 C 159.33 127.70 157.34 126.24 155.60 124.70 C 157.42 124.90 159.21 125.36 160.79 126.31 Z" />
</g>
<g id="#0537f7ff">
<path fill="#0537f7" opacity="1.00" d=" M 100.96 132.87 C 101.28 133.32 101.91 134.22 102.23 134.68 C 103.04 134.57 103.84 134.46 104.65 134.35 C 105.06 134.84 105.87 135.82 106.27 136.31 C 105.55 137.67 105.24 139.41 106.54 140.55 C 108.65 143.39 112.39 145.33 115.94 144.30 C 121.06 143.07 125.98 141.07 131.16 140.09 C 128.29 143.54 124.99 146.61 121.55 149.48 C 117.33 152.90 111.02 153.57 106.32 150.73 C 100.04 147.54 97.17 139.00 100.96 132.87 Z" />
</g>
<g id="#cd8b31ff">
<path fill="#cd8b31" opacity="1.00" d=" M 55.39 136.38 C 56.04 137.41 56.71 138.43 57.38 139.45 C 57.41 141.32 57.81 143.16 58.32 144.95 C 58.49 149.65 60.26 154.08 60.75 158.72 C 59.15 160.78 57.90 163.08 57.44 165.67 C 56.65 164.01 55.67 162.44 54.12 161.40 L 53.78 161.12 C 50.45 153.64 49.14 145.44 49.48 137.29 C 50.97 139.23 52.05 141.44 52.45 143.87 C 53.51 141.40 54.94 139.07 55.39 136.38 Z" />
</g>
<g id="#932205ff">
<path fill="#932205" opacity="1.00" d=" M 210.21 149.96 C 212.97 150.95 214.04 147.43 215.82 146.05 C 214.81 156.55 211.76 166.92 206.43 176.06 C 206.29 175.55 206.01 174.54 205.88 174.03 C 205.07 174.94 204.28 175.86 203.48 176.77 C 202.74 175.99 202.01 175.21 201.27 174.43 C 199.60 177.36 197.99 180.48 195.07 182.37 C 194.63 181.76 193.77 180.54 193.33 179.92 C 197.80 174.79 200.55 168.48 203.33 162.34 C 204.87 157.80 206.44 153.14 206.64 148.31 L 207.22 149.10 C 207.94 149.96 208.68 150.81 209.42 151.65 C 209.68 151.09 209.94 150.52 210.21 149.96 Z" />
</g>
<g id="#bf7425ff">
<path fill="#bf7425" opacity="1.00" d=" M 57.44 165.67 C 57.90 163.08 59.15 160.78 60.75 158.72 C 63.35 164.70 65.83 170.78 69.53 176.18 C 65.79 175.82 64.82 171.88 63.31 169.10 C 63.62 171.56 63.72 174.09 62.94 176.48 C 63.07 178.18 63.11 179.90 62.74 181.57 C 58.17 175.71 55.86 168.53 54.12 161.40 C 55.67 162.44 56.65 164.01 57.44 165.67 Z" />
</g>
<g id="#b3611bff">
<path fill="#b3611b" opacity="1.00" d=" M 63.31 169.10 C 64.82 171.88 65.79 175.82 69.53 176.18 C 71.38 178.62 73.32 180.99 75.25 183.37 C 73.94 184.37 72.63 185.37 71.31 186.35 C 69.64 185.99 67.92 185.82 66.21 185.99 L 65.98 186.00 C 64.87 184.55 63.79 183.07 62.74 181.57 C 63.11 179.90 63.07 178.18 62.94 176.48 C 63.72 174.09 63.62 171.56 63.31 169.10 Z" />
</g>
<g id="#850906ff">
<path fill="#850906" opacity="1.00" d=" M 201.27 174.43 C 202.01 175.21 202.74 175.99 203.48 176.77 C 204.28 175.86 205.07 174.94 205.88 174.03 C 206.01 174.54 206.29 175.55 206.43 176.06 C 197.49 191.77 183.07 203.41 168.24 213.30 C 156.88 220.54 145.03 226.97 132.93 232.87 C 124.94 229.14 117.17 224.95 109.52 220.57 C 112.45 218.89 115.59 217.56 118.26 215.46 C 123.23 217.68 128.00 220.60 133.07 222.42 C 137.04 220.83 140.70 218.60 144.61 216.86 C 152.93 213.03 160.25 207.45 168.17 202.90 C 172.90 200.23 176.61 196.22 180.85 192.88 C 185.54 189.11 189.60 184.63 193.33 179.92 C 193.77 180.54 194.63 181.76 195.07 182.37 C 197.99 180.48 199.60 177.36 201.27 174.43 Z" />
</g>
<g id="#2139dfff">
<path fill="#2139df" opacity="1.00" d=" M 148.85 184.01 C 149.26 180.94 153.29 182.41 155.36 182.76 C 157.65 183.26 157.75 185.41 157.04 187.25 C 155.64 183.86 152.11 183.27 148.85 184.01 Z" />
</g>
<g id="#ab4c11ff">
<path fill="#ab4c11" opacity="1.00" d=" M 71.31 186.35 C 72.63 185.37 73.94 184.37 75.25 183.37 C 80.09 189.87 87.02 194.29 92.93 199.71 C 89.09 201.84 84.91 200.07 80.85 200.81 C 75.28 196.72 70.48 191.44 66.21 185.99 C 67.92 185.82 69.64 185.99 71.31 186.35 Z" />
</g>
<g id="#f9f9f3ff">
<path fill="#f9f9f3" opacity="1.00" d=" M 110.65 184.63 C 113.92 183.42 117.58 183.40 120.04 186.19 C 121.36 190.38 117.08 192.94 114.36 195.24 C 116.77 195.15 119.53 193.79 121.76 195.17 C 121.80 195.46 121.89 196.05 121.93 196.34 C 119.30 200.05 114.04 199.94 110.00 199.40 C 108.57 198.58 106.49 197.97 106.20 196.08 C 111.77 196.15 116.12 191.95 119.04 187.63 C 115.03 187.91 110.97 188.08 107.01 187.23 C 108.15 186.27 109.31 185.30 110.65 184.63 Z" />
</g>
<g id="#0d22e3ff">
<path fill="#0d22e3" opacity="1.00" d=" M 134.94 185.62 C 136.72 185.40 139.40 183.24 140.06 185.98 C 138.70 185.85 137.40 186.08 136.16 186.64 C 137.27 187.82 138.96 188.59 139.66 190.12 C 139.83 191.50 139.52 192.90 139.09 194.21 C 138.28 194.25 137.47 194.21 136.66 194.18 C 136.87 191.38 136.72 188.51 135.15 186.08 L 134.94 185.62 Z" />
</g>
<g id="#f6f5efff">
<path fill="#f6f5ef" opacity="1.00" d=" M 125.61 187.03 C 127.48 186.52 129.42 186.33 131.35 186.51 C 131.60 187.23 132.09 188.69 132.34 189.42 C 132.39 191.79 133.12 194.50 131.50 196.54 C 130.42 196.90 129.32 197.18 128.20 197.40 C 127.80 197.83 127.01 198.70 126.62 199.13 L 126.20 199.59 L 125.73 199.01 C 122.10 195.71 122.18 190.36 123.85 186.10 L 124.21 186.99 C 125.68 189.51 125.39 193.31 127.96 195.02 C 129.07 193.21 128.52 191.13 128.16 189.20 C 127.30 188.48 126.45 187.76 125.61 187.03 Z" />
</g>
<g id="#f5f2ebff">
<path fill="#f5f2eb" opacity="1.00" d=" M 136.16 186.64 C 137.40 186.08 138.70 185.85 140.06 185.98 C 141.39 187.03 142.47 188.37 143.33 189.84 C 143.40 192.23 143.27 194.69 142.14 196.87 C 141.63 197.28 140.60 198.10 140.09 198.51 C 138.42 197.46 136.48 197.56 134.60 197.64 C 133.13 193.84 133.82 189.80 135.15 186.08 C 136.72 188.51 136.87 191.38 136.66 194.18 C 137.47 194.21 138.28 194.25 139.09 194.21 C 139.52 192.90 139.83 191.50 139.66 190.12 C 138.96 188.59 137.27 187.82 136.16 186.64 Z" />
</g>
<g id="#fafbf8ff">
<path fill="#fafbf8" opacity="1.00" d=" M 147.31 194.99 C 148.95 194.45 150.16 192.94 151.89 192.71 L 153.17 192.89 C 152.62 193.47 151.53 194.64 150.98 195.22 C 153.67 194.88 156.36 194.51 159.05 194.23 C 158.53 195.54 157.89 196.79 157.12 197.96 C 153.69 199.20 149.91 199.63 146.30 199.05 C 145.24 198.26 142.96 198.02 143.27 196.27 C 144.58 195.74 145.97 195.42 147.31 194.99 Z" />
</g>
<g id="#9e3107ff">
<path fill="#9e3107" opacity="1.00" d=" M 80.85 200.81 C 84.91 200.07 89.09 201.84 92.93 199.71 C 97.01 202.61 101.22 205.31 105.53 207.85 C 104.26 209.30 103.50 211.07 102.64 212.78 C 101.27 213.43 99.71 213.49 98.25 213.80 C 92.25 209.76 86.27 205.63 80.85 200.81 Z" />
</g>
</svg>
